<svg width="345" height="409" viewBox="0 0 345 409" fill="none" xmlns="http://www.w3.org/2000/svg">
<path d="M259.226 322.95C306.345 275.831 306.345 199.436 259.226 152.317C212.106 105.198 135.711 105.198 88.5921 152.317C41.473 199.436 41.473 275.831 88.5921 322.95C135.711 370.069 212.106 370.069 259.226 322.95Z" fill="#243137"/>
<path opacity="0.73" d="M272.541 266.636V307.113C268.087 313.311 263.051 319.121 257.628 324.544V266.636V266.442C257.628 266.055 250.269 260.051 244.652 255.597V253.079L251.431 251.336C254.142 250.561 257.047 250.948 259.759 251.917C260.921 252.498 262.083 252.885 263.438 253.273V258.502C268.861 263.15 272.347 266.249 272.541 266.636Z" fill="#131B1F"/>
<path d="M2.37305 26.6355L37.8149 109.527L63.5732 91.9027L78.6795 113.594L81.391 76.99L112.572 57.8166L2.37305 26.6355Z" fill="#FA5684"/>
<path d="M69.3854 88.0293L37.8169 109.527L63.5752 91.9028L78.6816 113.594L81.393 76.9901L31.4258 47.1647L69.3854 88.0293Z" fill="#EB3669"/>
<path d="M80.6183 85.8989L31.4258 47.1647L81.393 76.9901L80.6183 85.8989Z" fill="#D03E67"/>
<path d="M79.2594 199.185C79.0657 197.636 78.6784 195.893 78.291 194.343L80.8087 193.762C81.1961 195.312 81.5834 197.055 81.9708 198.798L79.2594 199.185Z" fill="#FA5684"/>
<path d="M50.0153 255.544C46.3355 255.35 42.8494 254.188 39.9443 252.251L41.3001 250.121C43.8178 251.864 46.9165 252.832 50.2089 253.026L50.0153 255.544ZM60.4735 253.413L59.3115 251.089C61.8292 249.733 64.5406 247.797 66.8647 245.085L68.8014 246.828C66.09 249.927 63.3786 252.058 60.4735 253.413ZM32.9722 244.117C31.6165 241.212 30.8418 238.113 30.8418 235.014C30.8418 234.821 30.8418 234.433 30.8418 234.24V233.659L33.3595 233.852V234.24C33.3595 234.433 33.3595 234.627 33.3595 234.821C33.3595 237.532 33.9405 240.244 35.2962 242.761L32.9722 244.117ZM130.002 243.536V241.018C133.294 241.018 136.586 240.825 140.072 240.631L140.266 243.149C136.78 243.536 133.294 243.536 130.002 243.536ZM119.931 243.342L118.381 243.149C115.282 242.955 112.571 242.568 109.86 241.987L110.247 239.469C112.765 239.856 115.476 240.244 118.575 240.437L120.124 240.631L119.931 243.342ZM150.337 242.18L149.95 239.663C153.242 239.275 156.535 238.694 159.827 238.113L160.214 240.631C156.922 241.212 153.629 241.599 150.337 242.18ZM99.7888 239.663C96.8837 238.694 93.9787 237.339 91.6546 235.983C91.2673 235.789 90.8799 235.595 90.4926 235.208L91.8483 233.078C92.2356 233.271 92.623 233.465 93.0103 233.659C95.3344 235.014 98.0458 236.176 100.757 237.145L99.7888 239.663ZM74.6115 238.501L72.4811 237.339C74.0305 234.433 75.5799 231.528 76.5482 228.43L78.8723 229.204C77.9039 232.497 76.3546 235.595 74.6115 238.501ZM170.285 238.307L169.704 235.789C172.803 235.014 176.095 234.24 179.388 233.271L180.162 235.595C176.87 236.757 173.578 237.532 170.285 238.307ZM189.846 232.69L189.071 230.366C192.17 229.398 195.462 228.236 198.561 227.074L199.336 229.398C196.237 230.56 193.138 231.722 189.846 232.69ZM81.971 229.398C79.647 227.655 77.1292 225.912 74.4178 224.556L73.6432 224.169L74.8052 221.845C75.1925 222.038 75.3862 222.232 75.7735 222.232C78.6786 223.782 81.1963 225.718 83.5204 227.268L81.971 229.398ZM36.8456 225.718L35.1026 223.975C37.2329 221.845 40.3317 220.102 44.3988 218.94L45.1735 221.264C41.4937 222.426 38.5887 223.782 36.8456 225.718ZM64.5406 220.683C61.6356 220.102 58.7305 219.714 55.8254 219.714H54.8571V217.197C58.3431 217.197 61.8292 217.39 65.1216 218.165L64.5406 220.683ZM81.5837 219.327L79.066 218.94C79.647 215.647 80.0343 212.355 80.0343 209.062H82.552C82.552 212.355 82.1647 215.841 81.5837 219.327Z" fill="#FA5684"/>
<path d="M209.019 225.912L208.051 223.588C209.6 223.007 211.15 222.426 212.699 221.845L213.667 224.169C212.118 224.75 210.569 225.331 209.019 225.912Z" fill="#FA5684"/>
<path d="M272.553 230.962C271.197 230.962 270.229 229.993 270.035 228.638C269.841 227.282 271.003 226.12 272.359 225.926C287.465 224.377 301.41 217.211 311.674 205.591C312.643 204.622 314.192 204.429 315.16 205.397C316.129 206.366 316.322 207.915 315.354 208.883C304.315 221.472 289.208 229.412 272.746 230.962C272.746 230.962 272.746 230.962 272.553 230.962Z" fill="#FA5684"/>
<path d="M257.434 266.636L170.088 318.346L82.5488 266.829V266.636C82.5488 266.248 87.3906 262.181 94.7501 256.371L94.9438 256.178C119.153 236.617 169.895 196.333 169.895 196.333C169.895 196.333 220.83 236.423 244.845 256.178C252.399 261.988 257.434 266.248 257.434 266.636Z" fill="#7A4C08"/>
<path d="M205.922 153.532H111.604C103.47 153.532 96.8848 160.117 96.8848 168.251V310.987C96.8848 319.121 103.47 325.706 111.604 325.706H229.937C238.071 325.706 244.656 319.121 244.656 310.987V192.072L205.922 153.532Z" fill="white"/>
<path d="M205.922 177.353C205.922 185.488 212.507 192.072 220.641 192.072H244.462L205.922 153.532V177.353Z" fill="#E6E8E8"/>
<path d="M157.116 177.547H124.385C121.48 177.547 119.156 179.871 119.156 182.776V215.313C119.156 218.218 121.48 220.542 124.385 220.542H156.922C159.827 220.542 162.151 218.218 162.151 215.313V182.776C162.345 179.871 159.827 177.547 157.116 177.547Z" fill="#64D4FE"/>
<path d="M201.66 232.55H123.417C121.093 232.55 119.156 234.486 119.156 236.81C119.156 239.135 121.093 241.071 123.417 241.071H201.66C203.984 241.071 205.921 239.135 205.921 236.81C205.921 234.486 203.984 232.55 201.66 232.55Z" fill="#D9DBDB"/>
<path d="M201.66 253.466H123.417C121.093 253.466 119.156 255.403 119.156 257.727C119.156 260.051 121.093 261.988 123.417 261.988H201.66C203.984 261.988 205.921 260.051 205.921 257.727C205.921 255.403 203.984 253.466 201.66 253.466Z" fill="#D9DBDB"/>
<path d="M166.218 273.802H123.61C121.286 273.802 119.35 275.738 119.35 278.062C119.35 280.386 121.286 282.323 123.61 282.323H166.218C168.542 282.323 170.479 280.386 170.479 278.062C170.285 275.738 168.542 273.802 166.218 273.802Z" fill="#D9DBDB"/>
<path d="M257.436 266.636V350.495C257.436 356.306 252.595 361.147 246.784 361.147H93.0093C87.1992 361.147 82.3574 356.306 82.3574 350.495V266.636L169.897 318.152L257.436 266.636Z" fill="#EB3669"/>
<path d="M254.532 357.855L198.174 301.497L169.898 318.152L141.622 301.497L85.2637 357.855C87.2004 359.985 89.9118 361.147 93.0105 361.147H246.786C249.884 361.341 252.596 359.985 254.532 357.855Z" fill="#FA5684"/>
<path d="M280.606 0.266329C255.429 2.78406 235.287 23.5069 233.544 48.6842C232.576 61.2728 236.255 72.8931 242.84 82.383C245.358 85.869 245.745 90.5172 244.002 94.5843L239.935 104.655L256.978 100.201C259.69 99.426 262.595 99.6197 265.306 100.782C273.247 104.268 281.962 105.817 291.452 104.849C316.242 102.525 336.19 82.5766 338.514 57.7867C341.419 24.6689 313.724 -3.02608 280.606 0.266329Z" fill="#65D4FE"/>
<path d="M287.191 79.0905L290.096 76.1854C290.096 76.1854 287.772 70.7626 297.455 61.6601C303.265 56.2373 304.427 51.0082 304.04 46.7474C303.265 39.9689 297.649 34.3524 290.87 33.5777C286.61 33.1904 281.381 34.3524 275.958 40.1626C266.855 49.8461 261.432 47.5221 261.432 47.5221L258.527 50.4271L287.191 79.0905Z" fill="white"/>
<path d="M264.919 61.4664C262.595 64.5652 262.982 69.0196 265.693 71.731C268.598 74.6361 272.859 74.8297 275.958 72.5057L264.919 61.4664Z" fill="white"/>
<path d="M305.975 37.0639L304.232 38.8069C302.876 36.6765 300.939 34.7398 298.615 33.3841L300.358 31.6411C301.908 30.0917 304.425 30.0917 305.975 31.6411C307.524 32.9968 307.524 35.5145 305.975 37.0639Z" fill="white"/>
<path d="M284.481 0.0726427C303.267 5.68911 316.824 22.9259 316.824 43.6487C316.824 68.826 296.489 89.1615 271.311 89.1615C258.142 89.1615 246.328 83.545 238 74.4424C239.356 77.3475 240.905 80.0589 242.648 82.5767C245.166 86.0627 245.553 90.7108 243.81 94.7779L239.743 104.849L256.786 100.394C259.498 99.6197 262.403 99.8134 265.114 100.975C273.055 104.462 281.77 106.011 291.26 105.043C316.05 102.718 335.998 82.7703 338.322 57.9804C341.227 26.0246 315.856 -0.702043 284.481 0.0726427Z" fill="#42BDEB"/>
<path d="M5.47282 126.365L16.8994 152.704C17.4804 154.06 16.8994 155.609 15.5437 156.19L15.1564 156.384C13.8007 156.965 12.2513 156.384 11.6703 155.028L0.437364 128.495C-0.14365 127.139 0.631041 125.59 1.98674 125.009C3.34244 124.428 4.8918 125.009 5.47282 126.365Z" fill="#FA5684"/>
</svg>
